<svg width="189" height="66" viewBox="0 0 189 66" fill="none" xmlns="http://www.w3.org/2000/svg">
<path d="M75.1201 31.556V47H71.3581V31.556H75.1201ZM85.3264 34.592C86.7638 34.592 87.9078 35.0613 88.7584 36C89.6238 36.924 90.0564 38.2 90.0564 39.828V47H86.3164V40.334C86.3164 39.5127 86.1038 38.8747 85.6784 38.42C85.2531 37.9653 84.6811 37.738 83.9624 37.738C83.2438 37.738 82.6718 37.9653 82.2464 38.42C81.8211 38.8747 81.6084 39.5127 81.6084 40.334V47H77.8464V34.724H81.6084V36.352C81.9898 35.8093 82.5031 35.384 83.1484 35.076C83.7938 34.7533 84.5198 34.592 85.3264 34.592ZM97.6646 47.176C96.594 47.176 95.6406 46.9927 94.8046 46.626C93.9686 46.2593 93.3086 45.7607 92.8246 45.13C92.3406 44.4847 92.0693 43.766 92.0106 42.974H95.7286C95.7726 43.3993 95.9706 43.744 96.3226 44.008C96.6746 44.272 97.1073 44.404 97.6206 44.404C98.09 44.404 98.4493 44.316 98.6986 44.14C98.9626 43.9493 99.0946 43.7073 99.0946 43.414C99.0946 43.062 98.9113 42.8053 98.5446 42.644C98.178 42.468 97.584 42.2773 96.7626 42.072C95.8826 41.8667 95.1493 41.654 94.5626 41.434C93.976 41.1993 93.47 40.84 93.0446 40.356C92.6193 39.8573 92.4066 39.19 92.4066 38.354C92.4066 37.65 92.5973 37.012 92.9786 36.44C93.3746 35.8533 93.9466 35.3913 94.6946 35.054C95.4573 34.7167 96.3593 34.548 97.4006 34.548C98.9406 34.548 100.151 34.9293 101.031 35.692C101.925 36.4547 102.439 37.4667 102.571 38.728H99.0946C99.036 38.3027 98.8453 37.9653 98.5226 37.716C98.2146 37.4667 97.804 37.342 97.2906 37.342C96.8506 37.342 96.5133 37.43 96.2786 37.606C96.044 37.7673 95.9266 37.9947 95.9266 38.288C95.9266 38.64 96.11 38.904 96.4766 39.08C96.858 39.256 97.4446 39.432 98.2366 39.608C99.146 39.8427 99.8866 40.0773 100.459 40.312C101.031 40.532 101.529 40.8987 101.955 41.412C102.395 41.9107 102.622 42.5853 102.637 43.436C102.637 44.1547 102.431 44.8 102.021 45.372C101.625 45.9293 101.045 46.3693 100.283 46.692C99.5346 47.0147 98.662 47.176 97.6646 47.176ZM111.78 43.81V47H109.866C108.502 47 107.439 46.67 106.676 46.01C105.914 45.3353 105.532 44.2427 105.532 42.732V37.848H104.036V34.724H105.532V31.732H109.294V34.724H111.758V37.848H109.294V42.776C109.294 43.1427 109.382 43.4067 109.558 43.568C109.734 43.7293 110.028 43.81 110.438 43.81H111.78ZM113.128 40.84C113.128 39.5787 113.362 38.4713 113.832 37.518C114.316 36.5647 114.968 35.8313 115.79 35.318C116.611 34.8047 117.528 34.548 118.54 34.548C119.405 34.548 120.16 34.724 120.806 35.076C121.466 35.428 121.972 35.89 122.324 36.462V34.724H126.086V47H122.324V45.262C121.957 45.834 121.444 46.296 120.784 46.648C120.138 47 119.383 47.176 118.518 47.176C117.52 47.176 116.611 46.9193 115.79 46.406C114.968 45.878 114.316 45.1373 113.832 44.184C113.362 43.216 113.128 42.1013 113.128 40.84ZM122.324 40.862C122.324 39.9233 122.06 39.1827 121.532 38.64C121.018 38.0973 120.388 37.826 119.64 37.826C118.892 37.826 118.254 38.0973 117.726 38.64C117.212 39.168 116.956 39.9013 116.956 40.84C116.956 41.7787 117.212 42.5267 117.726 43.084C118.254 43.6267 118.892 43.898 119.64 43.898C120.388 43.898 121.018 43.6267 121.532 43.084C122.06 42.5413 122.324 41.8007 122.324 40.862ZM133.471 34.548C134.337 34.548 135.092 34.724 135.737 35.076C136.397 35.428 136.903 35.89 137.255 36.462V34.724H141.017V46.978C141.017 48.1073 140.79 49.1267 140.335 50.036C139.895 50.96 139.213 51.6933 138.289 52.236C137.38 52.7787 136.243 53.05 134.879 53.05C133.061 53.05 131.587 52.6173 130.457 51.752C129.328 50.9013 128.683 49.7427 128.521 48.276H132.239C132.357 48.7453 132.635 49.112 133.075 49.376C133.515 49.6547 134.058 49.794 134.703 49.794C135.481 49.794 136.097 49.5667 136.551 49.112C137.021 48.672 137.255 47.9607 137.255 46.978V45.24C136.889 45.812 136.383 46.2813 135.737 46.648C135.092 47 134.337 47.176 133.471 47.176C132.459 47.176 131.543 46.9193 130.721 46.406C129.9 45.878 129.247 45.1373 128.763 44.184C128.294 43.216 128.059 42.1013 128.059 40.84C128.059 39.5787 128.294 38.4713 128.763 37.518C129.247 36.5647 129.9 35.8313 130.721 35.318C131.543 34.8047 132.459 34.548 133.471 34.548ZM137.255 40.862C137.255 39.9233 136.991 39.1827 136.463 38.64C135.95 38.0973 135.319 37.826 134.571 37.826C133.823 37.826 133.185 38.0973 132.657 38.64C132.144 39.168 131.887 39.9013 131.887 40.84C131.887 41.7787 132.144 42.5267 132.657 43.084C133.185 43.6267 133.823 43.898 134.571 43.898C135.319 43.898 135.95 43.6267 136.463 43.084C136.991 42.5413 137.255 41.8007 137.255 40.862ZM147.501 36.77C147.941 36.0953 148.491 35.5673 149.151 35.186C149.811 34.79 150.544 34.592 151.351 34.592V38.574H150.317C149.378 38.574 148.674 38.7793 148.205 39.19C147.736 39.586 147.501 40.29 147.501 41.302V47H143.739V34.724H147.501V36.77ZM152.401 40.84C152.401 39.5787 152.636 38.4713 153.105 37.518C153.589 36.5647 154.242 35.8313 155.063 35.318C155.884 34.8047 156.801 34.548 157.813 34.548C158.678 34.548 159.434 34.724 160.079 35.076C160.739 35.428 161.245 35.89 161.597 36.462V34.724H165.359V47H161.597V45.262C161.23 45.834 160.717 46.296 160.057 46.648C159.412 47 158.656 47.176 157.791 47.176C156.794 47.176 155.884 46.9193 155.063 46.406C154.242 45.878 153.589 45.1373 153.105 44.184C152.636 43.216 152.401 42.1013 152.401 40.84ZM161.597 40.862C161.597 39.9233 161.333 39.1827 160.805 38.64C160.292 38.0973 159.661 37.826 158.913 37.826C158.165 37.826 157.527 38.0973 156.999 38.64C156.486 39.168 156.229 39.9013 156.229 40.84C156.229 41.7787 156.486 42.5267 156.999 43.084C157.527 43.6267 158.165 43.898 158.913 43.898C159.661 43.898 160.292 43.6267 160.805 43.084C161.333 42.5413 161.597 41.8007 161.597 40.862ZM183.745 34.592C185.27 34.592 186.48 35.054 187.375 35.978C188.284 36.902 188.739 38.1853 188.739 39.828V47H184.999V40.334C184.999 39.542 184.786 38.9333 184.361 38.508C183.95 38.068 183.378 37.848 182.645 37.848C181.911 37.848 181.332 38.068 180.907 38.508C180.496 38.9333 180.291 39.542 180.291 40.334V47H176.551V40.334C176.551 39.542 176.338 38.9333 175.913 38.508C175.502 38.068 174.93 37.848 174.197 37.848C173.463 37.848 172.884 38.068 172.459 38.508C172.048 38.9333 171.843 39.542 171.843 40.334V47H168.081V34.724H171.843V36.264C172.224 35.7507 172.723 35.3473 173.339 35.054C173.955 34.746 174.651 34.592 175.429 34.592C176.353 34.592 177.174 34.79 177.893 35.186C178.626 35.582 179.198 36.1467 179.609 36.88C180.034 36.2053 180.613 35.6553 181.347 35.23C182.08 34.8047 182.879 34.592 183.745 34.592Z" fill="black"/>
<path d="M29 25.1419C27.6343 25.1425 26.2994 25.6038 25.1641 26.4676C24.0289 27.3315 23.1442 28.5589 22.6219 29.9949C22.0996 31.4308 21.9632 33.0107 22.23 34.5348C22.4967 36.059 23.1546 37.4589 24.1205 38.5576C25.0864 39.6563 26.3168 40.4044 27.6563 40.7074C28.9958 41.0103 30.3842 40.8545 31.6459 40.2597C32.9075 39.6648 33.9859 38.6576 34.7446 37.3654C35.5033 36.0732 35.9082 34.5541 35.9082 33C35.9068 30.9159 35.1785 28.9176 33.8832 27.4442C32.5879 25.9707 30.8315 25.1427 29 25.1419ZM45.1455 19.1017C44.7939 18.0879 44.2631 17.1671 43.5858 16.3964C42.9086 15.6258 42.0994 15.0217 41.2085 14.6217C38.4897 13.4004 32.0165 13.6744 29 13.6744C25.9835 13.6744 19.5167 13.39 16.7902 14.6217C15.8993 15.0217 15.0901 15.6258 14.4129 16.3964C13.7356 17.1671 13.2048 18.0879 12.8532 19.1017C11.7813 22.1954 12.0208 29.5689 12.0208 32.9985C12.0208 36.4282 11.7813 43.7928 12.8584 46.8968C13.2099 47.9106 13.7408 48.8314 14.4181 49.6021C15.0953 50.3727 15.9045 50.9768 16.7954 51.3769C19.5142 52.5982 25.9874 52.3242 29.0052 52.3242C32.023 52.3242 38.4871 52.6085 41.2137 51.3769C42.1046 50.9768 42.9138 50.3727 43.591 49.6021C44.2683 48.8314 44.7991 47.9106 45.1507 46.8968C46.2317 43.8031 45.9831 36.4296 45.9831 33C45.9831 29.5704 46.2317 22.2072 45.1507 19.1032L45.1455 19.1017ZM29 45.0804C26.9003 45.0804 24.8478 44.3719 23.102 43.0445C21.3562 41.717 19.9955 39.8303 19.192 37.623C18.3885 35.4156 18.1783 32.9866 18.5879 30.6432C18.9975 28.2999 20.0086 26.1474 21.4933 24.4579C22.978 22.7684 24.8696 21.6179 26.9289 21.1518C28.9882 20.6856 31.1228 20.9249 33.0626 21.8392C35.0024 22.7535 36.6604 24.3019 37.8269 26.2885C38.9935 28.2751 39.6161 30.6107 39.6161 33C39.6178 34.587 39.3443 36.1587 38.8114 37.6252C38.2785 39.0918 37.4966 40.4243 36.5105 41.5464C35.5244 42.6686 34.3534 43.5583 33.0646 44.1647C31.7758 44.7711 30.3946 45.0823 29 45.0804ZM40.0537 23.2326C39.5635 23.2329 39.0843 23.0678 38.6766 22.7581C38.269 22.4484 37.9512 22.0082 37.7634 21.4929C37.5757 20.9777 37.5264 20.4107 37.6219 19.8637C37.7173 19.3166 37.9532 18.814 38.2997 18.4195C38.6462 18.025 39.0878 17.7563 39.5685 17.6474C40.0492 17.5385 40.5475 17.5942 41.0003 17.8076C41.4532 18.021 41.8403 18.3824 42.1126 18.8461C42.3849 19.3099 42.5303 19.8551 42.5303 20.4129C42.5317 20.7832 42.4688 21.1503 42.3452 21.4929C42.2216 21.8356 42.0398 22.1471 41.8102 22.4096C41.5806 22.6722 41.3077 22.8805 41.0071 23.0227C40.7066 23.165 40.3843 23.2383 40.0588 23.2385L40.0537 23.2326ZM51.7857 0H6.21429C4.56615 0 2.98553 0.745024 1.82012 2.07117C0.654717 3.39732 0 5.19597 0 7.07143V58.9286C0 60.804 0.654717 62.6027 1.82012 63.9288C2.98553 65.255 4.56615 66 6.21429 66H51.7857C53.4338 66 55.0145 65.255 56.1799 63.9288C57.3453 62.6027 58 60.804 58 58.9286V7.07143C58 5.19597 57.3453 3.39732 56.1799 2.07117C55.0145 0.745024 53.4338 0 51.7857 0ZM49.5693 42.7232C49.4023 46.4991 48.6449 49.8447 46.2226 52.5938C43.8004 55.3428 40.8628 56.2223 37.5485 56.402C34.1294 56.6215 23.8784 56.6215 20.4592 56.402C17.1411 56.212 14.2113 55.3487 11.7851 52.5938C9.35897 49.8388 8.59643 46.4917 8.43848 42.7232C8.24558 38.831 8.24558 27.1646 8.43848 23.2768C8.60549 19.5009 9.35379 16.1553 11.7851 13.4063C14.2165 10.6572 17.154 9.78804 20.4592 9.6083C23.8784 9.3888 34.1294 9.3888 37.5485 9.6083C40.8667 9.79835 43.8055 10.6617 46.2226 13.4166C48.6397 16.1715 49.4113 19.5186 49.5693 23.2945C49.7622 27.172 49.7622 38.828 49.5693 42.7232Z" fill="black"/>
</svg>
